<svg xmlns="http://www.w3.org/2000/svg" viewBox="0 0 72 24" shape-rendering="crispEdges" aria-hidden="true">
  <!-- posts / scroll -->
  <g transform="translate(0 0)">
    <rect x="3" y="3" width="18" height="18" fill="#173f57"/>
    <rect x="5" y="5" width="14" height="14" fill="#f6e8bb"/>
    <rect x="5" y="5" width="14" height="3" fill="#82b86b"/>
    <rect x="7" y="10" width="10" height="2" fill="#315e73"/>
    <rect x="7" y="14" width="8" height="2" fill="#315e73"/>
    <rect x="5" y="17" width="3" height="2" fill="#d6a94f"/>
    <rect x="16" y="17" width="3" height="2" fill="#d6a94f"/>
  </g>

  <!-- categories / inventory grid -->
  <g transform="translate(24 0)">
    <rect x="3" y="3" width="18" height="18" fill="#173f57"/>
    <rect x="5" y="5" width="6" height="6" fill="#df7580"/>
    <rect x="13" y="5" width="6" height="6" fill="#e8b955"/>
    <rect x="5" y="13" width="6" height="6" fill="#6fa66d"/>
    <rect x="13" y="13" width="6" height="6" fill="#7187c5"/>
    <rect x="6" y="6" width="2" height="2" fill="#f7c2c7"/>
    <rect x="14" y="6" width="2" height="2" fill="#fff0a7"/>
    <rect x="6" y="14" width="2" height="2" fill="#a9d39c"/>
    <rect x="14" y="14" width="2" height="2" fill="#b5c1eb"/>
  </g>

  <!-- docs / open book -->
  <g transform="translate(48 0)">
    <rect x="2" y="4" width="20" height="17" fill="#173f57"/>
    <rect x="4" y="6" width="8" height="12" fill="#e9eefb"/>
    <rect x="12" y="6" width="8" height="12" fill="#d9e2f5"/>
    <rect x="11" y="5" width="2" height="15" fill="#d5a84e"/>
    <rect x="6" y="8" width="4" height="2" fill="#657dbc"/>
    <rect x="6" y="12" width="4" height="2" fill="#657dbc"/>
    <rect x="14" y="8" width="4" height="2" fill="#657dbc"/>
    <rect x="14" y="12" width="4" height="2" fill="#657dbc"/>
    <rect x="4" y="18" width="8" height="2" fill="#bdc9e5"/>
    <rect x="12" y="18" width="8" height="2" fill="#adbddd"/>
  </g>
</svg>
